<svg width="283" height="284" viewBox="0 0 283 284" fill="none" xmlns="http://www.w3.org/2000/svg">
<path d="M112.738 180.275C107.679 189.287 98.0893 206.939 98.1426 209.069C98.26 209.223 98.2939 209.294 98.2382 209.275C98.1766 209.255 98.1455 209.185 98.1426 209.069C95.0951 205.075 35.7373 144.718 22.7382 117.275C6.2382 92.9417 -16.0618 39.0751 26.7382 18.2751C38.0715 13.2751 63.0382 11.3751 72.2382 43.7751C72.9048 47.6084 74.4382 52.9751 75.2382 43.7751C77.0715 25.9417 89.3382 -6.92494 123.738 4.27506C137.738 10.4417 162.838 32.9751 151.238 73.7751L146.738 87.7751C131.238 73.7751 100.338 44.2751 100.738 38.2751C92.9048 38.7751 83.6382 48.8751 109.238 85.2751C117.905 94.9417 135.138 115.675 134.738 121.275C118.571 111.942 88.2382 99.3751 96.2382 123.775C81.7382 111.608 50.5382 86.1751 41.7382 81.7751C36.4048 80.9417 28.9382 83.8751 41.7382 102.275C47.4048 110.275 60.7382 127.675 68.7382 133.275C79.2382 142.608 100.738 163.075 102.738 170.275L112.738 180.275Z" fill="black"/>
<path d="M112.738 180.275C107.405 189.775 97.0382 208.875 98.2382 209.275C99.7382 209.775 36.2382 145.775 22.7382 117.275C6.2382 92.9417 -16.0618 39.0751 26.7382 18.2751C38.0715 13.2751 63.0382 11.3751 72.2382 43.7751C72.9048 47.6084 74.4382 52.9751 75.2382 43.7751C77.0715 25.9417 89.3382 -6.92494 123.738 4.27506C137.738 10.4417 162.838 32.9751 151.238 73.7751L146.738 87.7751C131.238 73.7751 100.338 44.2751 100.738 38.2751C92.9048 38.7751 83.6382 48.8751 109.238 85.2751C117.905 94.9417 135.138 115.675 134.738 121.275C118.571 111.942 88.2382 99.3751 96.2382 123.775C81.7382 111.608 50.5382 86.1751 41.7382 81.7751C36.4048 80.9417 28.9382 83.8751 41.7382 102.275C47.4048 110.275 60.7382 127.675 68.7382 133.275C79.2382 142.608 100.738 163.075 102.738 170.275L112.738 180.275Z" stroke="black" stroke-width="3" stroke-linecap="round"/>
<path d="M235.238 282.275C204.071 277.108 139.138 264.375 128.738 254.775C121.572 249.942 100.138 237.375 71.7382 225.775M71.7382 225.775C57.2382 219.108 33.0382 205.275 52.2382 203.275M71.7382 225.775C73.7382 212.975 59.5715 205.442 52.2382 203.275M52.2382 203.275C58.7382 201.442 79.4382 201.375 110.238 215.775C112.571 217.442 120.938 220.275 135.738 218.275C138.738 217.442 146.238 217.475 152.238 224.275" stroke="white" stroke-width="3" stroke-linecap="round"/>
<path d="M133.238 218.775C125.738 200.108 101.638 156.175 65.2382 129.775C53.5715 118.275 31.6382 92.9751 37.2382 83.7751C38.7382 81.1084 47.3382 81.4751 69.7382 104.275C74.4049 108.442 85.7382 117.975 93.7382 122.775C98.5716 126.775 110.938 135.275 115.738 141.275C119.238 144.275 125.638 151.775 145.238 157.775" stroke="white" stroke-width="3" stroke-linecap="round"/>
<path d="M97.2382 125.275C95.5716 119.775 94.7382 109.175 104.738 110.775C109.738 111.275 125.138 115.775 146.738 129.775C153.238 133.608 167.738 141.575 173.738 142.775" stroke="white" stroke-width="3" stroke-linecap="round"/>
<path d="M135.238 122.775C136.405 120.775 134.938 112.975 119.738 97.775C108.571 85.1084 88.1381 56.075 95.7381 41.275C96.4048 39.6084 98.3382 37.275 100.738 41.275C110.405 53.275 132.238 78.8751 142.238 85.2751C151.071 92.4417 170.838 111.675 179.238 131.275C179.905 132.775 181.438 134.875 182.238 131.275C182.571 116.442 180.738 81.6751 170.738 61.2751C169.905 58.7751 168.738 52.7751 170.738 48.7751C171.405 47.9417 173.038 46.7751 174.238 48.7751C179.905 54.7751 192.238 69.8751 196.238 82.2751C199.238 88.6084 205.938 109.075 208.738 140.275C208.905 142.608 211.138 148.875 218.738 155.275C230.405 166.608 255.838 192.875 264.238 207.275C268.905 213.942 278.738 229.175 280.738 236.775" stroke="white" stroke-width="3" stroke-linecap="round"/>
<path d="M165.738 165.775C168.072 167.108 172.738 170.475 172.738 173.275M185.738 153.775C187.238 154.108 190.538 155.475 191.738 158.275" stroke="white" stroke-width="3" stroke-linecap="round"/>
<path d="M196.238 144.775C198.072 146.608 202.338 150.375 204.738 150.775" stroke="white" stroke-width="3" stroke-linecap="round"/>
<path d="M118.738 238.275C117.905 240.608 116.738 245.375 118.738 245.775" stroke="white" stroke-width="3" stroke-linecap="round"/>
<path d="M125.738 239.775C126.072 241.775 126.338 245.975 124.738 246.775" stroke="white" stroke-width="3" stroke-linecap="round"/>
<path d="M93.2383 222.275C92.5716 223.775 91.3383 227.275 91.7383 229.275" stroke="white" stroke-width="3" stroke-linecap="round"/>
<path d="M38.2383 96.7751C44.2383 98.2751 56.5383 99.6751 57.7383 93.2751" stroke="white" stroke-width="3" stroke-linecap="round"/>
<path d="M95.2383 55.2751C99.5716 56.2751 108.338 57.0751 108.738 52.2751" stroke="white" stroke-width="3" stroke-linecap="round"/>
<path d="M171.238 60.2751C174.072 61.6084 180.138 62.8751 181.738 57.2751" stroke="white" stroke-width="3" stroke-linecap="round"/>
</svg>
