<svg width="35" height="29" viewBox="0 0 35 29" fill="none" xmlns="http://www.w3.org/2000/svg">
<path d="M26 2.80339L23.2632 7.23153C19.4737 4.81225 16.2807 5.14346 15.1579 5.61148C9.85263 7.51233 8.38596 11.9477 8.31579 13.9277L11.3684 13.9277L5.68421 23L-2.69564e-06 13.9277L3.15789 13.9277C3.49474 7.79314 7.7193 3.66742 9.78947 2.37138C16.4421 -2.12155 23.3684 0.787334 26 2.80339Z" fill="white"/>
<path d="M9 26.1966L11.7368 21.7685C15.5263 24.1877 18.7193 23.8565 19.8421 23.3885C25.1474 21.4877 26.614 17.0523 26.6842 15.0723L23.6316 15.0723L29.3158 6L35 15.0723L31.8421 15.0723C31.5053 21.2069 27.2807 25.3326 25.2105 26.6286C18.5579 31.1216 11.6316 28.2127 9 26.1966Z" fill="white"/>
</svg>
