<svg width="250" height="303" viewBox="0 0 250 303" fill="none" xmlns="http://www.w3.org/2000/svg">
<path d="M48.2184 158.849C20.2519 156.92 18.8857 174.118 21.6984 182.958C32.7886 206.103 55.2502 223.542 65.0947 229.368C99.8117 253.477 140.636 249.057 156.709 243.834C196.73 230.333 217.183 202.446 222.406 190.191C230.121 171.386 221.201 164.274 215.776 163.068C191.667 152.46 149.476 167.488 131.395 176.328C125.629 176.542 113.032 174.32 98.8474 171.255C81.0015 167.399 60.6434 162.207 48.2184 158.849Z" fill="black" stroke="black" stroke-width="3" stroke-linecap="round"/>
<path d="M34.3547 283.613C28.0864 278.792 41.7884 252.674 49.4229 240.217C79.5592 261.583 112.307 266.204 122.353 265.2C158.516 267.128 191.867 247.249 204.324 237.806C221.2 254.2 226.223 267.943 226.624 272.764C165.87 318.089 73.1301 298.883 34.3547 283.613Z" fill="black" stroke="black" stroke-width="3" stroke-linecap="round"/>
<path d="M66.9023 186.575C60.634 186.093 51.4323 190.392 47.6151 192.602C36.0427 198.87 49.2224 196.821 57.2587 195.013C64.9736 192.12 62.8842 197.022 60.8751 199.835C53.6423 202.246 55.8523 204.054 57.8614 204.657C61.2367 203.21 64.8932 206.063 66.2996 207.67C60.9956 215.385 64.4914 216.108 66.9023 215.506C68.8311 209.719 73.7332 208.273 75.9432 208.273C81.7294 215.506 80.3632 208.876 78.9569 204.657C83.2965 203.692 92.4178 192.2 96.4359 186.575H66.9023Z" fill="url(#paint0_linear_49_141)"/>
<path d="M132.6 96.1655C133.082 88.9328 125.568 82.3028 121.751 79.8919C127.055 78.4453 131.194 66.431 132.6 60.6046C133.564 68.8017 140.235 76.8782 143.449 79.8919C139.592 79.8919 134.609 90.7409 132.6 96.1655Z" fill="black" stroke="black" stroke-linecap="round"/>
<path d="M118.134 49.7555C110.901 49.7555 110.7 56.5864 111.504 60.0018C117.772 65.788 118.937 60.4037 118.736 56.9882C122.112 52.1664 119.741 50.1573 118.134 49.7555Z" fill="black" stroke="black" stroke-linecap="round"/>
<path d="M241.091 48.5503C237.715 63.0157 234.461 54.5775 233.255 48.5503C215.414 43.7285 225.821 36.0939 233.255 32.8794C235.184 16.003 241.693 26.6512 244.707 34.0848C255.797 42.7641 246.917 47.3448 241.091 48.5503Z" fill="white"/>
<path d="M161.898 225.258C159.298 236.467 156.79 229.928 155.861 225.258C142.114 221.521 150.133 215.605 155.861 213.114C157.347 200.036 162.363 208.288 164.685 214.048C173.23 220.774 166.388 224.324 161.898 225.258Z" fill="url(#paint1_linear_49_141)"/>
<path d="M173.164 197.774C171.634 204.179 170.159 200.443 169.612 197.774C161.526 195.639 166.243 192.258 169.612 190.835C170.487 183.362 173.437 188.077 174.803 191.369C179.83 195.212 175.805 197.24 173.164 197.774Z" fill="url(#paint2_linear_49_141)"/>
<path d="M213.739 15.4823C211.598 24.5566 209.532 19.2633 208.767 15.4823C197.447 12.4576 204.05 7.66835 208.767 5.65182C209.991 -4.93486 214.122 1.74483 216.034 6.40801C223.072 11.8526 217.437 14.7261 213.739 15.4823Z" fill="white"/>
<path d="M246.823 149.205C246.823 212.532 191.999 264.032 124.162 264.032C56.3239 264.032 1.5 212.532 1.5 149.205C1.5 85.8792 56.3239 34.3792 124.162 34.3792C191.999 34.3792 246.823 85.8792 246.823 149.205Z" stroke="white" stroke-width="3"/>
<defs>
<linearGradient id="paint0_linear_49_141" x1="94.802" y1="186.537" x2="42.3495" y2="214.33" gradientUnits="userSpaceOnUse">
<stop stop-color="#DC528E"/>
<stop offset="0.322917" stop-color="#D78EA9"/>
<stop offset="0.6875" stop-color="#D98083"/>
<stop offset="1" stop-color="#D87776"/>
</linearGradient>
<linearGradient id="paint1_linear_49_141" x1="168.136" y1="206.133" x2="143.684" y2="211.857" gradientUnits="userSpaceOnUse">
<stop stop-color="#DC528E"/>
<stop offset="0.322917" stop-color="#D78EA9"/>
<stop offset="0.6875" stop-color="#D98083"/>
<stop offset="1" stop-color="#D87776"/>
</linearGradient>
<linearGradient id="paint2_linear_49_141" x1="176.833" y1="186.845" x2="162.494" y2="190.301" gradientUnits="userSpaceOnUse">
<stop stop-color="#DC528E"/>
<stop offset="0.322917" stop-color="#D78EA9"/>
<stop offset="0.6875" stop-color="#D98083"/>
<stop offset="1" stop-color="#D87776"/>
</linearGradient>
</defs>
</svg>
